<?xml version="1.0" encoding="utf-8"?>
<!-- Generator: Adobe Illustrator 16.0.0, SVG Export Plug-In . SVG Version: 6.00 Build 0)  -->
<!DOCTYPE svg PUBLIC "-//W3C//DTD SVG 1.1//EN" "http://www.w3.org/Graphics/SVG/1.1/DTD/svg11.dtd">
<svg version="1.1" id="圖層_1" xmlns="http://www.w3.org/2000/svg" xmlns:xlink="http://www.w3.org/1999/xlink" x="0px" y="0px"
	 width="209.167px" height="51px" viewBox="0 6.167 209.167 51" enable-background="new 0 6.167 209.167 51" xml:space="preserve">
<g id="圖層_1_1_">
</g>
<g id="圖層_2">
	<text transform="matrix(1.0074 0 0 1 57.8521 52.439)" fill="#991F23" font-family="'ArialMT'" font-size="10.141">National Cheng Kung University</text>
	<g>
		<text transform="matrix(1 0 0 1 56.0972 29.9517)" fill="#991F23" font-family="'DFLiSong-W5-WIN-BF'" font-size="24.6953">國立成功大學</text>
	</g>
	<rect x="57.221" y="38.532" fill="#991F23" width="145.905" height="1.716"/>
	<path fill="#A52828" d="M40.363,47.366l0.64,0.798l1.713,0.245l-0.553,0.441l-1.16-0.196l-0.067,1.177l-0.488,0.388l0.142-1.711
		l-0.646-0.807L40.363,47.366L40.363,47.366L40.363,47.366z M43.542,47.07l-1.31-1.34l0.381-0.369l1.31,1.338l0.75-0.73l0.285,0.292
		l-1.883,1.835l-0.286-0.292L43.542,47.07L43.542,47.07L43.542,47.07z M43.967,43.659l1.807,1.393l-0.324,0.42l-1.808-1.392
		L43.967,43.659L43.967,43.659L43.967,43.659z M46.506,43.202l0.741-1.294l-0.426-0.244l-0.706,1.235
		c-0.11,0.193-0.22,0.305-0.323,0.334c-0.105,0.032-0.248-0.003-0.428-0.107l-0.271-0.155c-0.182-0.103-0.286-0.207-0.313-0.313
		c-0.027-0.104,0.015-0.253,0.125-0.447l0.699-1.223c0.111-0.194,0.219-0.306,0.323-0.337c0.107-0.03,0.249,0.006,0.429,0.108
		l0.054,0.03l-0.148,0.456l-0.234-0.135l-0.799,1.399l0.452,0.257l0.706-1.233c0.109-0.192,0.219-0.302,0.322-0.334
		c0.104-0.027,0.249,0.008,0.428,0.111l0.219,0.124c0.181,0.103,0.284,0.206,0.313,0.312c0.027,0.104-0.013,0.254-0.124,0.446
		l-0.642,1.123c-0.106,0.187-0.213,0.297-0.316,0.331c-0.104,0.034-0.237,0.004-0.4-0.088l-0.042-0.021l0.139-0.462L46.506,43.202
		L46.506,43.202L46.506,43.202z M47.146,37.148l2.178,0.689l-0.591,1.858c-0.054,0.173-0.128,0.286-0.218,0.344
		c-0.092,0.056-0.21,0.061-0.359,0.015l-0.513-0.163c-0.146-0.047-0.241-0.118-0.284-0.217c-0.042-0.102-0.037-0.237,0.019-0.407
		l0.09-0.283l-1.143,0.742l0.234-0.725l1.1-0.616l0.152-0.479l-0.822-0.26L47.146,37.148L47.146,37.148L47.146,37.148z
		 M48.428,39.352l0.363-1.138l-0.607-0.191l-0.361,1.139c-0.028,0.087-0.034,0.15-0.021,0.19c0.016,0.04,0.056,0.069,0.121,0.093
		l0.262,0.082c0.064,0.02,0.113,0.018,0.149-0.007C48.368,39.497,48.4,39.439,48.428,39.352L48.428,39.352L48.428,39.352z
		 M47.663,33.861l2.275,0.196l-0.2,2.325l-0.387-0.034l0.156-1.797l-0.51-0.045l-0.091,1.051l-0.388-0.033l0.091-1.05l-0.564-0.048
		l-0.157,1.818l-0.429-0.036L47.663,33.861L47.663,33.861L47.663,33.861z M47.724,31.413l2.3-1.291l-0.007,0.606l-1.663,0.903
		l1.64,0.9l-0.006,0.527l-2.27-1.28L47.724,31.413L47.724,31.413L47.724,31.413z M47.49,29.032l2.26-0.328l0.077,0.524l-2.261,0.329
		L47.49,29.032L47.49,29.032L47.49,29.032z M46.568,25.187l2.192-0.64l0.102,0.348l-0.841,1.918
		c-0.027,0.063-0.054,0.122-0.081,0.173c-0.026,0.051-0.054,0.1-0.084,0.145c0.121-0.043,0.207-0.075,0.257-0.094
		c0.049-0.017,0.087-0.029,0.115-0.038l1.153-0.336l0.133,0.458l-2.194,0.639l-0.101-0.347l0.885-2.002
		c0.021-0.049,0.042-0.091,0.063-0.128c0.019-0.038,0.04-0.073,0.061-0.105c-0.064,0.027-0.128,0.05-0.188,0.071
		c-0.059,0.021-0.109,0.038-0.155,0.051l-1.184,0.347L46.568,25.187L46.568,25.187L46.568,25.187z M47.09,21.229l-1.648,0.849
		l0.694,1.343l1.647-0.849l0.245,0.47l-1.552,0.798c-0.185,0.096-0.328,0.125-0.431,0.091c-0.103-0.034-0.206-0.149-0.307-0.346
		l-0.663-1.28c-0.1-0.195-0.136-0.346-0.104-0.45c0.029-0.103,0.14-0.203,0.325-0.298l1.55-0.799L47.09,21.229L47.09,21.229
		L47.09,21.229z M42.683,16.46l-1.222-1.124l-0.981,1.061l1.221,1.123l0.344-0.374l-0.638-0.587l0.265-0.285l1.019,0.938
		l-0.534,0.577c-0.142,0.154-0.268,0.231-0.376,0.234c-0.108,0.004-0.244-0.07-0.407-0.22l-1.159-1.066
		c-0.163-0.15-0.248-0.28-0.254-0.388c-0.005-0.108,0.064-0.239,0.205-0.392l0.815-0.882c0.143-0.152,0.265-0.23,0.376-0.233
		c0.107-0.003,0.244,0.07,0.408,0.22l1.157,1.066c0.161,0.147,0.245,0.277,0.253,0.384c0.007,0.109-0.057,0.235-0.188,0.379
		l-0.037,0.039l-0.442-0.282L42.683,16.46L42.683,16.46L42.683,16.46z M36.473,14.448l1.133-1.98l0.314,0.18l0.732,1.962
		c0.025,0.065,0.046,0.126,0.062,0.182c0.018,0.055,0.029,0.108,0.039,0.162c0.057-0.116,0.097-0.196,0.119-0.244
		c0.026-0.048,0.045-0.084,0.059-0.109l0.595-1.039l0.415,0.235l-1.133,1.98l-0.314-0.18l-0.758-2.052
		c-0.017-0.051-0.033-0.097-0.043-0.137c-0.013-0.04-0.023-0.079-0.03-0.118c-0.028,0.064-0.057,0.125-0.085,0.181
		c-0.028,0.057-0.052,0.104-0.076,0.145l-0.612,1.069L36.473,14.448L36.473,14.448L36.473,14.448z M33.994,11.22l-0.429,1.8
		l1.474,0.349l0.428-1.801l0.515,0.123l-0.401,1.693c-0.049,0.202-0.119,0.332-0.212,0.388c-0.095,0.055-0.25,0.057-0.465,0.006
		L33.5,13.446c-0.214-0.05-0.351-0.122-0.409-0.214c-0.06-0.091-0.065-0.238-0.018-0.441l0.402-1.694L33.994,11.22L33.994,11.22
		L33.994,11.22z M29.506,12.74l0.202-2.271l0.537,0.047l-0.087,0.948l1.347-0.836l0.766,0.068l-1.604,0.936l1.586,1.352
		l-0.851-0.076l-1.273-1.12l-0.09,0.999L29.506,12.74L29.506,12.74L29.506,12.74z M23.492,11.351l-1.593,0.463l0.404,1.386
		l1.593-0.463l-0.142-0.486l-0.835,0.242l-0.108-0.373l1.331-0.386l0.219,0.752c0.059,0.202,0.063,0.349,0.008,0.443
		c-0.054,0.094-0.188,0.172-0.4,0.234l-1.514,0.439c-0.213,0.062-0.367,0.068-0.462,0.017c-0.095-0.051-0.173-0.176-0.231-0.376
		l-0.336-1.153c-0.058-0.2-0.061-0.346-0.008-0.441c0.054-0.094,0.188-0.173,0.4-0.235l1.514-0.439
		c0.209-0.061,0.363-0.066,0.461-0.018c0.097,0.05,0.172,0.169,0.227,0.357l0.015,0.049l-0.47,0.233L23.492,11.351L23.492,11.351
		L23.492,11.351z M18.377,15.392l-1.045-2.026l0.322-0.166l2.047,0.459c0.069,0.016,0.131,0.031,0.187,0.047
		c0.055,0.017,0.108,0.035,0.157,0.056c-0.066-0.11-0.112-0.188-0.139-0.233c-0.028-0.047-0.047-0.082-0.061-0.108l-0.548-1.064
		l0.424-0.218l1.044,2.027l-0.322,0.167l-2.138-0.487c-0.051-0.014-0.098-0.026-0.138-0.038c-0.041-0.011-0.08-0.025-0.116-0.041
		c0.038,0.059,0.074,0.117,0.106,0.171c0.033,0.054,0.059,0.101,0.08,0.142l0.564,1.095L18.377,15.392L18.377,15.392L18.377,15.392z
		 M15.649,17.366l-1.456-1.755l1.803-1.489l0.248,0.299l-1.392,1.15l0.325,0.392l0.813-0.671l0.248,0.299l-0.813,0.671l0.362,0.435
		l1.409-1.164l0.274,0.331L15.649,17.366L15.649,17.366L15.649,17.366z M12.851,20.292l-1.686-1.539l0.359-0.392l0.655,0.597
		l1.12-1.223l-0.655-0.597l0.363-0.395l1.685,1.537l-0.361,0.395l-0.726-0.662l-1.12,1.223l0.726,0.661L12.851,20.292L12.851,20.292
		L12.851,20.292z M10.312,20.701l-0.706,1.246l1.261,0.707l0.704-1.246l-0.428-0.239l0.356-0.409l0.237,0.132
		c0.181,0.103,0.286,0.206,0.312,0.312c0.028,0.105-0.011,0.254-0.119,0.446l-0.67,1.185c-0.109,0.194-0.216,0.305-0.319,0.336
		c-0.104,0.031-0.247-0.005-0.429-0.107l-1.048-0.589c-0.181-0.102-0.286-0.206-0.315-0.311c-0.026-0.104,0.013-0.254,0.122-0.447
		l0.668-1.184c0.11-0.193,0.215-0.305,0.32-0.334c0.106-0.031,0.249,0.003,0.43,0.105l0.188,0.105l-0.188,0.503L10.312,20.701
		L10.312,20.701L10.312,20.701z M9.155,29.197l-2.259-0.335l0.078-0.525l1.833,0.272l0.254-1.691l0.425,0.063L9.155,29.197
		L9.155,29.197L9.155,29.197z M8.775,33.103l-2.202-1.427l0.032-0.51l2.36-1.165l-0.036,0.593l-0.514,0.243L8.327,32.28l0.481,0.295
		L8.775,33.103L8.775,33.103L8.775,33.103z M7.928,32.03l0.061-0.998l-0.958,0.437L7.928,32.03L7.928,32.03L7.928,32.03z
		 M9.29,36.597l-2.268,0.28l-0.044-0.359l1.137-1.759c0.039-0.06,0.074-0.112,0.108-0.159c0.035-0.046,0.071-0.09,0.108-0.127
		c-0.127,0.021-0.216,0.04-0.27,0.049c-0.051,0.011-0.092,0.018-0.121,0.02l-1.19,0.147l-0.059-0.473l2.267-0.281l0.044,0.359
		L7.809,36.13c-0.031,0.044-0.059,0.083-0.083,0.116c-0.026,0.032-0.05,0.066-0.079,0.096c0.068-0.016,0.135-0.029,0.197-0.042
		c0.062-0.011,0.115-0.019,0.161-0.024l1.224-0.152L9.29,36.597L9.29,36.597L9.29,36.597z M9.988,40.042l-0.55-1.658l-1.373,0.452
		l0.551,1.66L9.988,40.042L9.988,40.042L9.988,40.042z M8.909,40.959c-0.199,0.065-0.345,0.073-0.442,0.024
		c-0.096-0.051-0.18-0.182-0.25-0.393l-0.528-1.59c-0.07-0.213-0.081-0.366-0.032-0.464c0.048-0.096,0.17-0.178,0.368-0.243
		l1.143-0.379c0.197-0.063,0.346-0.072,0.442-0.021c0.097,0.05,0.179,0.182,0.249,0.391l0.527,1.59
		c0.069,0.214,0.08,0.366,0.034,0.464c-0.048,0.097-0.171,0.179-0.369,0.244L8.909,40.959L8.909,40.959L8.909,40.959z
		 M11.399,41.768l-1.963,1.167l-0.272-0.456l1.962-1.167L11.399,41.768L11.399,41.768L11.399,41.768z M10.809,44.399l1.522-1.093
		l0.311,0.431l-1.522,1.094l0.612,0.85l-0.333,0.238l-1.537-2.134l0.332-0.238L10.809,44.399L10.809,44.399L10.809,44.399z
		 M15.428,46.709l-2.526,0.714l-0.363-0.36l0.677-2.539l0.425,0.418l-0.158,0.546l1.03,1.019l0.539-0.169L15.428,46.709
		L15.428,46.709L15.428,46.709z M14.095,46.673l-0.647-0.761l-0.391,0.975L14.095,46.673L14.095,46.673L14.095,46.673z
		 M18.168,49.012l-1.428,1.78l-0.283-0.228l-0.414-2.051c-0.014-0.071-0.025-0.133-0.033-0.189
		c-0.008-0.059-0.012-0.113-0.013-0.167c-0.074,0.105-0.127,0.18-0.157,0.224c-0.031,0.042-0.056,0.076-0.074,0.099l-0.749,0.934
		l-0.373-0.299l1.428-1.778l0.285,0.227l0.427,2.145c0.008,0.055,0.016,0.102,0.021,0.144c0.005,0.04,0.008,0.082,0.01,0.12
		c0.039-0.059,0.077-0.113,0.112-0.164c0.037-0.052,0.069-0.096,0.098-0.13l0.773-0.963L18.168,49.012L18.168,49.012L18.168,49.012z
		"/>
	<path fill="#A52828" d="M35.304,52.989l-0.597-1.909l-0.504,0.155l-0.097-0.313l0.953-0.465l0.743,2.377L35.304,52.989
		L35.304,52.989L35.304,52.989z M30.727,53.936c-0.22,0.028-0.375,0.015-0.461-0.044c-0.085-0.059-0.139-0.178-0.162-0.363
		l-0.028-0.198l0.491-0.169l0.044,0.342l1.325-0.173c0.092-0.013,0.155-0.034,0.183-0.068c0.028-0.033,0.036-0.094,0.024-0.181
		l-0.023-0.178c-0.011-0.092-0.036-0.148-0.074-0.178c-0.035-0.023-0.1-0.03-0.193-0.018l-0.829,0.107l-0.051-0.397l0.737-0.098
		c0.093-0.011,0.152-0.035,0.18-0.068c0.027-0.035,0.035-0.095,0.024-0.184l-0.017-0.123c-0.012-0.092-0.036-0.149-0.07-0.176
		c-0.035-0.024-0.098-0.029-0.191-0.019l-1.211,0.156l0.039,0.309l-0.496-0.028l-0.02-0.155c-0.024-0.182-0.002-0.313,0.064-0.39
		c0.067-0.079,0.211-0.131,0.433-0.161l1.327-0.171c0.222-0.03,0.375-0.018,0.46,0.042c0.085,0.059,0.139,0.18,0.164,0.363
		l0.028,0.223c0.019,0.143-0.001,0.255-0.063,0.332c-0.06,0.079-0.176,0.145-0.348,0.195c0.198-0.007,0.348,0.023,0.45,0.092
		c0.102,0.068,0.162,0.179,0.183,0.332l0.032,0.258c0.028,0.201,0.001,0.343-0.076,0.43c-0.076,0.087-0.224,0.144-0.45,0.174
		L30.727,53.936L30.727,53.936L30.727,53.936z M28.227,52.764c0.006-0.027,0.009-0.054,0.013-0.08
		c0.002-0.027,0.003-0.047,0.004-0.065c0.003-0.243-0.026-0.396-0.089-0.457c-0.063-0.06-0.204-0.09-0.421-0.095l-0.685-0.008
		c-0.174-0.002-0.294,0.017-0.36,0.06s-0.099,0.121-0.102,0.242L26.585,52.5c-0.002,0.117,0.033,0.199,0.105,0.243
		c0.073,0.043,0.22,0.066,0.443,0.069c0.155,0.003,0.326,0,0.511-0.008C27.831,52.797,28.023,52.784,28.227,52.764L28.227,52.764
		L28.227,52.764z M28.193,53.141c-0.178,0.027-0.36,0.045-0.542,0.056c-0.183,0.012-0.368,0.015-0.553,0.012
		c-0.4-0.005-0.674-0.056-0.821-0.149c-0.147-0.097-0.218-0.262-0.214-0.501l0.004-0.331c0.001-0.205,0.072-0.356,0.21-0.452
		c0.139-0.097,0.352-0.143,0.643-0.14l1.045,0.016c0.311,0.003,0.525,0.061,0.639,0.173c0.113,0.111,0.167,0.311,0.163,0.602
		l-0.004,0.324c-0.007,0.459-0.17,0.812-0.494,1.058c-0.321,0.246-0.772,0.365-1.354,0.355c-0.05,0-0.085,0-0.108,0
		c-0.024-0.003-0.048-0.005-0.071-0.01l-0.333-0.398l0.157,0.002c0.527,0.009,0.91-0.035,1.146-0.127
		C27.944,53.536,28.106,53.374,28.193,53.141L28.193,53.141L28.193,53.141z M23.08,53.513l0.363-1.966l-0.518-0.094l0.059-0.326
		l1.061,0.033l-0.45,2.447L23.08,53.513L23.08,53.513L23.08,53.513z"/>
	<rect x="5.077" y="9.456" display="none" fill="none" width="45.618" height="46.339"/>
	<path fill-rule="evenodd" clip-rule="evenodd" fill="#991F23" d="M24.815,32.572c0.111,0.173-0.12,0.499-0.265,0.613
		c-0.292,0.227-0.209,0.225-0.131,0.595c0.091-0.006,0.189-0.013,0.288-0.019c0.312-0.39,0.631-0.439,1.219-0.482
		c0.078-0.006,0.098-0.121,0.11-0.192c-0.362-0.283-0.983-0.573-1.061-0.697c-0.273-0.434,0-0.852,0.174-0.965
		c0.422-0.275,0.955-0.349,0.997-0.565c0.084-0.414-0.82-0.565-1.198-0.715c-0.644-0.155-1.881-0.115-1.518-0.853
		c0.886-0.497,2.805,0.184,3.578,0.609c0.4,0.22,0.822,0.845,0.634,1.159c-0.322,0.531-1.098,0.546-1.163,0.804
		c-0.028,0.115,0.068,0.248,0.156,0.329c0.314,0.288,0.769,0.44,0.867,1.353c0.013,0.109,0.372,0.103,0.51-0.021
		c0.125-0.114,0.149-0.356,0.163-0.518c0.593-0.346,0.827-0.156,1.082,0.454c0.404-0.046,0.913-0.091,1.317-0.136
		c-0.13-0.483,0.003-1.06-0.301-1.133c-0.967-0.23-1.882-0.183-2.092-0.488c0.162-0.794,0.853-0.551,1.754-0.644
		c-0.071-0.734-0.453-0.678-1.109-1.021c-0.278-0.146-0.503-0.112-0.567-0.664c1.375,0.059,1.502,0.104,4.077,0.17
		c0.274,0.072,0.286,0.116,0.377,0.208c-0.336,0.514-0.425,0.487-1.043,0.677c0.013,0.15,0.026,0.299,0.044,0.449
		c0.529-0.052,1.235-0.307,1.769-0.221c0.227,0.29-0.295,0.642-0.472,0.818c-0.119,0.121-0.023,0.094-0.184,0.172
		c-0.25,0.118-0.573,0.182-0.609,0.499c0.025,0.026,0.058,0.059,0.091,0.091c0.768-0.091,1.353-0.34,1.55-0.182
		c0.218,0.477-0.317,0.689-0.697,0.994c-0.146,0.118,0.168,0.481,0.294,0.609c0.085,0.088,0.126,0.073,0.196,0.188
		c0.482,0.792,0.726,1.66,0.938,2.566c0.148,0.638,0.194,1.012,0.152,1.673c-0.002,0.038-0.05,0.423-0.078,0.472
		c-0.066,0.122-0.109,0.203-0.141,0.185c-0.098-0.053-0.233-0.049-0.285-0.135c-0.802-1.274-0.615-3.059-1.599-4.217
		c-0.091,0.014-0.177,0.033-0.26,0.052c-0.308,1.275,0.306,2.628,0.098,3.943c-0.125-0.007-0.249-0.013-0.365-0.02
		c-0.327-1.196-0.691-3.222-1.383-4.293c-0.071,0.005-0.143,0.019-0.214,0.03c0.039,0.971,0.173,2.602,0.092,2.89
		c-0.036,0.128,0.049,0.146-0.197,1.066c-0.032,0.114-0.312,0.075-0.339-0.033c-0.271-1.079-0.074-2.112-0.463-3.084
		c-0.083,0-0.209,0-0.288,0c-0.074,0.158-0.153,0.287-0.171,0.545c-0.021,0.287-0.207,0.619-0.506,1.079
		c-0.231,0.352-1.293,1.631-1.727,1.631c-0.024-0.093-0.002-0.231,0.071-0.334c0.193-0.274,1.03-2.536,1.01-3.063
		c-0.416-0.104-0.977,1.462-1.805,2.508c-0.179,0.226-1.011,1.18-1.873,1.391c-0.492,0.119-0.755,0.027-1.09-0.128
		c0.13-0.14,0.362-0.251,0.45-0.292c1.639-0.774,2.211-1.395,2.622-2.952c-0.038-0.084-0.077-0.16-0.116-0.24
		c-0.41,0.096-1.078,1.219-1.396,1.482c-0.72,0.595-1.219,0.688-1.992,0.73c0.001-0.062,0.036-0.108,0.082-0.122
		c0.763-0.234,1.453-1.381,1.544-2.098c-0.371-0.059-2.125-0.201-2.399-0.586c0.058-0.143,0.117-0.318,0.175-0.454
		c1.285-0.636,0.413-0.514,0.2-1.015C21.975,32.006,24.282,31.727,24.815,32.572L24.815,32.572L24.815,32.572z"/>
	<path fill-rule="evenodd" clip-rule="evenodd" fill="#991F23" d="M27.042,20.168c0.464-0.853,1.95-0.8,2.532-0.099
		C29.118,20.69,27.512,20.675,27.042,20.168L27.042,20.168L27.042,20.168z M26.506,25.657c-0.087-0.908,0.229-3.594,0.464-4.819
		c0.348,0.066,0.372,0.094,0.717,0.188c-0.208,4.404-0.129,4.291-0.256,4.947C27.074,25.989,26.749,25.857,26.506,25.657
		L26.506,25.657L26.506,25.657z M27.94,26.2c-0.082-1.092,0.08-3.687,0.22-5.049c0.098,0.007,0.305-0.016,0.409-0.002
		c0.089,0.228,0.029,2.253,0.238,5.032C28.417,26.285,28.325,26.32,27.94,26.2L27.94,26.2L27.94,26.2z M29.364,26.028
		c-0.217-1.682-0.217-3.396-0.275-5.001c0.347-0.169,0.306-0.169,0.64-0.221c0.165,1.389,0.358,3.689,0.588,5.016
		C30,25.948,29.696,26.102,29.364,26.028L29.364,26.028L29.364,26.028z M20.58,41.497c0.723-3.37,1.819-10.806,2.628-14.503
		c3.628,2.075,6.25,2.135,10.412,0.137c0.394,2.105,1.983,10.562,2.68,14.328C32.313,39.681,24.642,39.559,20.58,41.497
		L20.58,41.497L20.58,41.497z M24.056,26.096c0.503-0.299,0.893-0.546,1.461-0.683c1.033,1.951,4.583,1.971,5.931,0.043
		c0.098,0.358,1.11,0.431,1.404,0.771C31.097,28.233,25.984,28.359,24.056,26.096L24.056,26.096L24.056,26.096z M27.33,44.134
		c-0.057-1.257,0.218-2.524,0.24-3.146c-0.437-0.007-0.915-0.056-1.193,0.104c0.742,6.582-2.975,5.559-8.31,4.927
		c-1.056-3.012-3.38-4.632-1.823-7.189c0.797-1.311,4.119-2.276,4.171-2.398c0.299-0.115,0.27-0.491,0.445-1.22
		c-0.116,0.005-0.234,0.013-0.352,0.025c-2.13,1.104-4.703,1.944-6.339,1.27c0.156-1.932,5.933-2.449,6.816-2.578
		c0.137-0.246,0.253-0.813,0.279-1.008c0.027-0.194-0.064-0.154-0.124-0.156c-1.93,0.437-3.957,0.976-5.947,0.781
		c-3.325-1.256-2.099-3.761-3.305-6.598c1.323-0.967,1.042-1.478,3.058-3.122c2.019-1.645,3.92-1.089,7.403,2.61
		c0.203,0.008,0.087-0.347,0.27-0.765c0.189-0.173,0.079-0.096,0.225-0.167c-2.881-2.402-3.652-3.806-3.473-5.303
		c1.48-0.002,2.687,1.548,4.406,5.05c0.729-0.209,0.788-0.242,1.062-0.424c-0.051-0.881-1.708-1.978-1.976-4.183
		c-0.461-3.798,2.667-4.185,5.438-5.722c2.021,1.573,6.297,1.994,5.486,5.503c-0.333,1.44-0.941,2.437-1.978,4.265
		c0.182,0.443,0.705,0.437,1.082,0.371c0.717-1.834,1.85-4.49,4.083-4.802c0.659,1.509-2.461,4.53-3.287,5.446
		c0.006,0.053,0.032,0.111,0.039,0.169c0.525,0.041,0.248,0.558,0.602,0.586c1.299-1.983,2.653-3.441,5.339-3.424
		c2.687,0.019,2.565,1.794,5.132,3.808c-0.473,1.853-0.052,4.607-1.38,5.916c-1.439,1.414-4.031,0.961-7.797,0.05
		c-0.072,0.237,0.177,0.756,0.157,1.123c1.582,0.295,6.047,0.218,6.9,2.683c-2.564,0.607-4.979-0.368-6.382-1.28
		c-0.153-0.101-0.285-0.056-0.289-0.006c0,0.352,0.047,0.863,0.17,1.188c2.48,0.791,5.256,1.628,4.598,4.574
		c-0.381,1.696-1.869,2.87-2.11,4.983c-2.691-0.153-4.794,0.837-6.076,0.207c-1.84-0.909-2.092-3.674-2.32-5.19
		c-0.384-0.031-0.769-0.059-1.148-0.085c0.09,0.538,0.503,1.931,0.395,3.238c-0.108,1.303-0.515,2.05-1.15,2.539
		C27.851,46.234,27.385,45.394,27.33,44.134L27.33,44.134L27.33,44.134z"/>
</g>
</svg>
